<svg width="5000" height="3750" viewBox="0 0 5000 3750" fill="none" xmlns="http://www.w3.org/2000/svg">
<path d="M4459.21 2335.42C4459.76 2335.42 4460.21 2334.98 4460.21 2334.42C4460.21 2333.87 4459.76 2333.42 4459.21 2333.42C4458.66 2333.42 4458.21 2333.87 4458.21 2334.42C4458.21 2334.98 4458.66 2335.42 4459.21 2335.42Z" fill="black"/>
<path d="M4586 2397L4505 2401L4463 2398L4333 2404V2272L4467 2267L4508 2269L4585 2266L4586 2397Z" fill="black"/>
<path d="M4216.32 2345.29C4216.88 2345.29 4217.32 2344.85 4217.32 2344.29C4217.32 2343.74 4216.88 2343.29 4216.32 2343.29C4215.77 2343.29 4215.32 2343.74 4215.32 2344.29C4215.32 2344.85 4215.77 2345.29 4216.32 2345.29Z" fill="black"/>
<path d="M4333 2272V2404L4239 2408L4238 2415L4154 2418L4102 2412L4101 2278L4153 2280L4333 2272Z" fill="black"/>
<path d="M3976.8 2351.82C3977.35 2351.82 3977.8 2351.37 3977.8 2350.82C3977.8 2350.26 3977.35 2349.82 3976.8 2349.82C3976.24 2349.82 3975.8 2350.26 3975.8 2350.82C3975.8 2351.37 3976.24 2351.82 3976.8 2351.82Z" fill="black"/>
<path d="M4103 2412L3852 2425V2288L4102 2278L4103 2412Z" fill="black"/>
<path d="M3719.92 2361.97C3720.47 2361.97 3720.92 2361.52 3720.92 2360.97C3720.92 2360.42 3720.47 2359.97 3719.92 2359.97C3719.37 2359.97 3718.92 2360.42 3718.92 2360.97C3718.92 2361.52 3719.37 2361.97 3719.92 2361.97Z" fill="black"/>
<path d="M3852 2423L3589 2435L3588 2298L3852 2288V2423Z" fill="black"/>
<path d="M4458.58 2204.25C4459.14 2204.25 4459.58 2203.8 4459.58 2203.25C4459.58 2202.69 4459.14 2202.25 4458.58 2202.25C4458.03 2202.25 4457.58 2202.69 4457.58 2203.25C4457.58 2203.8 4458.03 2204.25 4458.58 2204.25Z" fill="black"/>
<path d="M4333 2272L4465 2267L4507 2270L4585 2266L4584 2136L4509 2138L4466 2136L4333 2140V2272Z" fill="black"/>
<path d="M4216.83 2211.57C4217.38 2211.57 4217.83 2211.13 4217.83 2210.57C4217.83 2210.02 4217.38 2209.57 4216.83 2209.57C4216.28 2209.57 4215.83 2210.02 4215.83 2210.57C4215.83 2211.13 4216.28 2211.57 4216.83 2211.57Z" fill="black"/>
<path d="M4333 2140V2272L4154 2280L4101 2278V2144L4154 2148L4333 2140Z" fill="black"/>
<path d="M3976.04 2216.27C3976.59 2216.27 3977.04 2215.82 3977.04 2215.27C3977.04 2214.71 3976.59 2214.27 3976.04 2214.27C3975.49 2214.27 3975.04 2214.71 3975.04 2215.27C3975.04 2215.82 3975.49 2216.27 3976.04 2216.27Z" fill="black"/>
<path d="M4101 2278L3852 2288V2151L4101 2144V2278Z" fill="black"/>
<path d="M3719.51 2224.68C3720.06 2224.68 3720.51 2224.23 3720.51 2223.68C3720.51 2223.13 3720.06 2222.68 3719.51 2222.68C3718.96 2222.68 3718.51 2223.13 3718.51 2223.68C3718.51 2224.23 3718.96 2224.68 3719.51 2224.68Z" fill="black"/>
<path d="M3853 2151L3852 2288L3588 2298L3587 2158L3853 2151Z" fill="black"/>
<path d="M4458.02 2075.69C4458.57 2075.69 4459.02 2075.24 4459.02 2074.69C4459.02 2074.14 4458.57 2073.69 4458.02 2073.69C4457.47 2073.69 4457.02 2074.14 4457.02 2074.69C4457.02 2075.24 4457.47 2075.69 4458.02 2075.69Z" fill="black"/>
<path d="M4333 2140L4466 2136L4508 2138L4584 2136L4583 2011L4508 2012L4462 2011L4333 2013V2140Z" fill="black"/>
<path d="M4216.42 2080.61C4216.97 2080.61 4217.42 2080.16 4217.42 2079.61C4217.42 2079.06 4216.97 2078.61 4216.42 2078.61C4215.87 2078.61 4215.42 2079.06 4215.42 2079.61C4215.42 2080.16 4215.87 2080.61 4216.42 2080.61Z" fill="black"/>
<path d="M4333 2013V2140L4154 2148L4101 2144V2015L4155 2016L4333 2013Z" fill="black"/>
<path d="M3975.62 2082.47C3976.17 2082.47 3976.62 2082.02 3976.62 2081.47C3976.62 2080.92 3976.17 2080.47 3975.62 2080.47C3975.06 2080.47 3974.62 2080.92 3974.62 2081.47C3974.62 2082.02 3975.06 2082.47 3975.62 2082.47Z" fill="black"/>
<path d="M4101 2014V2144L3852 2151L3851 2017L4101 2014Z" fill="black"/>
<path d="M3717.93 2087.23C3718.48 2087.23 3718.93 2086.78 3718.93 2086.23C3718.93 2085.67 3718.48 2085.23 3717.93 2085.23C3717.38 2085.23 3716.93 2085.67 3716.93 2086.23C3716.93 2086.78 3717.38 2087.23 3717.93 2087.23Z" fill="black"/>
<path d="M3851 2017L3852 2150L3587 2158L3585 2020L3851 2017Z" fill="black"/>
<path d="M4457.69 1948.09C4458.24 1948.09 4458.69 1947.64 4458.69 1947.09C4458.69 1946.54 4458.24 1946.09 4457.69 1946.09C4457.13 1946.09 4456.69 1946.54 4456.69 1947.09C4456.69 1947.64 4457.13 1948.09 4457.69 1948.09Z" fill="black"/>
<path d="M4583 2011L4508 2012L4467 2011L4333 2013L4332 1883L4583 1882V2011Z" fill="black"/>
<path d="M4216.24 1950.11C4216.79 1950.11 4217.24 1949.67 4217.24 1949.11C4217.24 1948.56 4216.79 1948.11 4216.24 1948.11C4215.68 1948.11 4215.24 1948.56 4215.24 1949.11C4215.24 1949.67 4215.68 1950.11 4216.24 1950.11Z" fill="black"/>
<path d="M4333 2013L4152 2016L4101 2015L4100 1884L4332 1883L4333 2013Z" fill="black"/>
<path d="M3975.59 1951.29C3976.14 1951.29 3976.59 1950.85 3976.59 1950.29C3976.59 1949.74 3976.14 1949.29 3975.59 1949.29C3975.04 1949.29 3974.59 1949.74 3974.59 1950.29C3974.59 1950.85 3975.04 1951.29 3975.59 1951.29Z" fill="black"/>
<path d="M4101 2014L3851 2017V1886L4100 1884L4101 2014Z" fill="black"/>
<path d="M3717.58 1953.71C3718.13 1953.71 3718.58 1953.26 3718.58 1952.71C3718.58 1952.16 3718.13 1951.71 3717.58 1951.71C3717.03 1951.71 3716.58 1952.16 3716.58 1952.71C3716.58 1953.26 3717.03 1953.71 3717.58 1953.71Z" fill="black"/>
<path d="M3851 2017L3585 2020L3584 1888L3851 1886V2017Z" fill="black"/>
<path d="M4456.51 1812.7C4457.06 1812.7 4457.51 1812.25 4457.51 1811.7C4457.51 1811.15 4457.06 1810.7 4456.51 1810.7C4455.96 1810.7 4455.51 1811.15 4455.51 1811.7C4455.51 1812.25 4455.96 1812.7 4456.51 1812.7Z" fill="black"/>
<path d="M4332 1883L4583 1882V1743L4331 1739L4332 1883Z" fill="black"/>
<path d="M4214.97 1811.5C4215.52 1811.5 4215.97 1811.05 4215.97 1810.5C4215.97 1809.95 4215.52 1809.5 4214.97 1809.5C4214.42 1809.5 4213.97 1809.95 4213.97 1810.5C4213.97 1811.05 4214.42 1811.5 4214.97 1811.5Z" fill="black"/>
<path d="M4331 1739L4332 1883L4100 1884L4099 1736L4331 1739Z" fill="black"/>
<path d="M3974.18 1810.5C3974.73 1810.5 3975.18 1810.05 3975.18 1809.5C3975.18 1808.95 3974.73 1808.5 3974.18 1808.5C3973.62 1808.5 3973.18 1808.95 3973.18 1809.5C3973.18 1810.05 3973.62 1810.5 3974.18 1810.5Z" fill="black"/>
<path d="M4099 1736L4100 1884L3851 1886L3850 1732L4099 1736Z" fill="black"/>
<path d="M3717.16 1809.6C3717.71 1809.6 3718.16 1809.15 3718.16 1808.6C3718.16 1808.04 3717.71 1807.6 3717.16 1807.6C3716.6 1807.6 3716.16 1808.04 3716.16 1808.6C3716.16 1809.15 3716.6 1809.6 3717.16 1809.6Z" fill="black"/>
<path d="M3851 1886L3585 1888L3586 1728L3850 1732L3851 1886Z" fill="black"/>
<path d="M4276.87 1654.04C4277.43 1654.04 4277.87 1653.59 4277.87 1653.04C4277.87 1652.49 4277.43 1652.04 4276.87 1652.04C4276.32 1652.04 4275.87 1652.49 4275.87 1653.04C4275.87 1653.59 4276.32 1654.04 4276.87 1654.04Z" fill="black"/>
<path d="M4021 1557L4022 1735L4583 1743L4582 1699L4517 1697L4515 1569L4021 1557Z" fill="black"/>
<path d="M3768.88 1641.22C3769.43 1641.22 3769.88 1640.77 3769.88 1640.22C3769.88 1639.67 3769.43 1639.22 3768.88 1639.22C3768.33 1639.22 3767.88 1639.67 3767.88 1640.22C3767.88 1640.77 3768.33 1641.22 3768.88 1641.22Z" fill="black"/>
<path d="M4021 1557L4022 1734L3520 1727L3519 1543L4021 1557Z" fill="black"/>
</svg>
